{"title":"The Jungle Book (2016) DVDRip XviD-EAGLE1","uid":15499952,"size":1753116516,"categoryP":"video","categoryS":"movies","magnet":"?xt=urn:btih:2728447447dde2017f799f40b56123b4b9a37ecf&amp;dn=The+Jungle+Book+%282016%29+DVDRip+XviD-EAGLE1&amp;tr=udp%3A%2F%2Ftracker.leechers-paradise.org%3A6969&amp;tr=udp%3A%2F%2Fzer0day.ch%3A1337&amp;tr=udp%3A%2F%2Fopen.demonii.com%3A1337&amp;tr=udp%3A%2F%2Ftracker.coppersurfer.tk%3A6969&amp;tr=udp%3A%2F%2Fexodus.desync.com%3A6969","seeders":1,"leechers":0,"uploader":"TGroup","files":2,"time":1470485546,"description":"Released\t2016\r\nGenre\tAdventure, Drama, Family\r\nActors\tNeel Sethi, Bill Murray, Ben Kingsley\r\nPlot\tAfter a threat from the tiger, Sher Khan, forces him to flee the jungle, a man-cub named, Mowgli, embarks on a journey of self discovery with the aid of the panther, Bagheera, and the free spirited bear, Baloo.\r\n\r\n\r\nFile size                                : 1.63 GiB\r\nDuration                                 : 1h 41mn\r\nOverall bit rate                         : 2 302 Kbps\r\nEncoded date                             : UTC 2016-08-06 09:16:07\r\nWriting application                      : mkvmerge v9.1.0 ('Little Earthquakes') 32bit\r\nWriting library                          : libebml v1.3.3 + libmatroska v1.4.4\r\n\r\nVideo\r\nID                                       : 1\r\nFormat                                   : MPEG-4 Visual\r\nFormat profile                           : Advanced   \r\nFormat settings, BVOP                    : 2\r\nFormat settings, QPel                    : No\r\nFormat settings, GMC                     : No warppoints\r\nFormat settings, Matrix                  : Default (MPEG)\r\nCodec ID                                 : V_MS/VFW/FOURCC / XVID\r\nCodec ID/Hint                            : XviD\r\nDuration                                 : 1h 41mn\r\nBit rate                                 : 1 853 Kbps\r\nWidth                                    : 720 pixels\r\nHeight                                   : 384 pixels\r\nDisplay aspect ratio                     : 1.85:1\r\nFrame rate mode                          : Constant\r\nFrame rate                               : 25.000 fps\r\nColor space                              : YUV\r\nChroma subsampling                       : 4:2:0\r\nBit depth                                : 8 bits\r\nScan type                                : Progressive\r\nCompression mode                         : Lossy\r\nBits/(Pixel*Frame)                       : 0.268\r\nStream size                              : 1.31 GiB (80%)\r\nWriting library                          : XviD 1.2.1 (UTC 2008-12-04)\r\nDefault                                  : Yes\r\nForced                                   : No\r\n\r\nAudio\r\nID                                       : 2\r\nFormat                                   : AC-3\r\nFormat/Info                              : Audio Coding 3\r\nMode extension                           : CM (complete main)\r\nFormat settings, Endianness              : Big\r\nCodec ID                                 : A_AC3\r\nDuration                                 : 1h 41mn\r\nBit rate mode                            : Constant\r\nBit rate                                 : 448 Kbps\r\nChannel(s)                               : 6 channels\r\nChannel positions                        : Front: L C R, Side: L R, LFE\r\nSampling rate                            : 48.0 KHz\r\nFrame rate                               : 31.250 fps (1536 spf)\r\nCompression mode                         : Lossy\r\nStream size                              : 325 MiB (19%)\r\nDefault                                  : Yes\r\nForced                                   : No\r\n\r\nSource used maxspeed","torrent":{"xt":"urn:btih:2728447447dde2017f799f40b56123b4b9a37ecf","amp;dn":"The+Jungle+Book+%282016%29+DVDRip+XviD-EAGLE1","amp;tr":["udp%3A%2F%2Ftracker.leechers-paradise.org%3A6969","udp%3A%2F%2Fzer0day.ch%3A1337","udp%3A%2F%2Fopen.demonii.com%3A1337","udp%3A%2F%2Ftracker.coppersurfer.tk%3A6969","udp%3A%2F%2Fexodus.desync.com%3A6969"],"infoHash":"2728447447dde2017f799f40b56123b4b9a37ecf","infoHashBuffer":{"type":"Buffer","data":[39,40,68,116,71,221,226,1,127,121,159,64,181,97,35,180,185,163,126,207]},"announce":[],"urlList":[]}}